<svg xmlns="http://www.w3.org/2000/svg" xmlns:svg="http://www.w3.org/2000/svg" id="svg8" width="126.613" height="126.611" version="1.1" viewBox="0 0 33.499 33.499"><metadata id="metadata5"/><g style="display:none" id="layer1" transform="translate(-116.34361,-155.77357)"><rect id="rect10" width="296.996" height="419.995" x="0" y="0" style="fill:#fff;fill-rule:evenodd;stroke:none;stroke-width:.374172"/></g><g id="layer2" transform="translate(-116.34361,-155.77357)"><g id="g875" transform="matrix(0.26458001,0,0,0.26458001,116.48826,155.77357)"><polygon id="polygon832" fill="#f3ba2f" points="38.171 53.203 62.759 28.616 87.36 53.216 101.667 38.909 62.759 0 23.864 38.896"/><rect id="rect834" width="20.233" height="20.234" x="3.644" y="53.188" fill="#f3ba2f" transform="matrix(0.7071,0.7071,-0.7071,0.7071,48.7933,8.8106)"/><polygon id="polygon836" fill="#f3ba2f" points="23.863 87.716 23.843 87.696 38.171 73.408 62.759 97.995 87.359 73.396 101.674 87.695 101.667 87.703 62.759 126.611"/><rect id="rect838" width="20.234" height="20.233" x="101.64" y="53.189" fill="#f3ba2f" transform="matrix(-0.7071,0.7071,-0.7071,-0.7071,235.5457,29.0503)"/><polygon id="polygon840" fill="#f3ba2f" points="48.254 63.285 48.254 63.285 48.234 63.305 48.254 63.326 62.759 77.831 77.277 63.313 77.284 63.305 77.271 63.298 77.277 63.298 62.759 48.78 52.03 59.509 52.029 59.509 50.797 60.742"/></g></g></svg>